<svg xmlns="http://www.w3.org/2000/svg" viewBox="0 0 171.6 171.6"><defs><style>.cls-1{fill:#282828;}.cls-2{fill:#b3b3b3;}</style></defs><g id="Layer_2" data-name="Layer 2"><g id="Layer_2-2" data-name="Layer 2"><path class="cls-1" d="M0,0V171.6H171.6V0ZM114.45,68,93.73,56.43v52.34h0A12.34,12.34,0,1,1,90,99.63V50.21h0v-.52l26.47,14.76Z"/><path class="cls-1" d="M81.38,99.93A8.59,8.59,0,1,0,90,108.59v-.16A8.58,8.58,0,0,0,81.38,99.93Z"/><path class="cls-2" d="M90,50.21h0V99.63a12.36,12.36,0,1,0,3.76,9.14h0V56.43L114.45,68l2-3.53L90,49.69Zm0,58.38a8.58,8.58,0,1,1,0-.16Z"/></g></g></svg>